<svg clip-rule="evenodd" fill-rule="evenodd" stroke-linejoin="round" stroke-miterlimit="1.41421" viewBox="0 0 560 400" xmlns="http://www.w3.org/2000/svg"><g fill="#fff" fill-rule="nonzero" transform="matrix(1.67785 0 0 1.67785 28.3221 160.126)"><path d="m20.78 32.93c.41 1.03.28 2.35.08 3.15-.35 1.42-1.31 2.87-4.15 2.87-2.66 0-4.28-1.54-4.28-3.86v-4.13h-11.43v3.28c0 9.5 7.47 12.37 15.48 12.37 7.7 0 14.04-2.62 15.05-9.73.52-3.68.14-6.09-.04-6.98-1.8-8.92-17.96-11.58-19.17-16.57-.168-.736-.182-1.499-.04-2.24.3-1.37 1.23-2.86 3.89-2.86 2.5 0 3.95 1.54 3.95 3.86v2.64h10.63v-3c0-9.28-8.33-10.73-14.35-10.73-7.58 0-13.77 2.51-14.9 9.46-.3 1.9-.35 3.6.1 5.74 1.85 8.7 16.98 11.22 19.18 16.73"/><path d="m46.6 2.36-7.9 42.59h11.51l5.83-38.65h.24l5.67 38.65h11.45l-7.85-42.6zm64.35 0-5.25 32.56h-.25l-5.24-32.56h-17.37l-.94 42.59h10.66l.26-38.29h.24l7.11 38.29h10.81l7.12-38.28h.23l.27 38.28h10.65l-.94-42.6z"/><path d="m20.78 32.93c.41 1.03.28 2.35.08 3.15-.35 1.42-1.31 2.87-4.15 2.87-2.66 0-4.28-1.54-4.28-3.86v-4.13h-11.43v3.28c0 9.5 7.47 12.37 15.48 12.37 7.7 0 14.04-2.62 15.05-9.73.52-3.68.14-6.09-.04-6.98-1.8-8.92-17.96-11.58-19.17-16.57-.168-.736-.182-1.499-.04-2.24.3-1.37 1.23-2.86 3.89-2.86 2.5 0 3.95 1.54 3.95 3.86v2.64h10.63v-3c0-9.28-8.33-10.73-14.35-10.73-7.58 0-13.77 2.51-14.9 9.46-.3 1.9-.35 3.6.1 5.74 1.85 8.7 16.98 11.22 19.18 16.73" transform="translate(138.47 -.08)"/><path d="m195 38.57c2.96 0 3.87-2.04 4.08-3.08.09-.46.1-1.08.1-1.63v-31.5h10.78v30.53c.002.934-.031 1.868-.1 2.8-.75 7.95-7.03 10.53-14.86 10.53-7.84 0-14.12-2.58-14.87-10.53-.03-.42-.11-2.02-.1-2.8v-30.54h10.78v31.5c-.01.56.01 1.18.1 1.64.2 1.04 1.12 3.08 4.09 3.08m52.08-36.21.58 33.43h-.23l-9.8-33.43h-15.8v42.14h10.47l-.58-34.59h.23l10.51 34.59h15.17v-42.14zm36.75 35.77c3.08 0 4.16-1.95 4.35-3.1.09-.47.1-1.07.1-1.6v-6.2h-4.37v-6.2h15.09v11.42c0 .8-.02 1.38-.15 2.8-.7 7.76-7.43 10.53-14.98 10.53s-14.27-2.77-14.98-10.53c-.12-1.42-.15-2-.15-2.8v-17.92c0-.76.1-2.1.18-2.8.95-7.97 7.4-10.53 14.95-10.53s14.17 2.54 14.95 10.52c.14 1.36.1 2.8.1 2.8v1.43h-10.74v-2.39s0-1-.13-1.62c-.2-.94-1-3.1-4.26-3.1-3.1 0-4.01 2.05-4.24 3.1-.13.56-.18 1.32-.18 2.01v19.47c0 .54.02 1.14.1 1.62.2 1.14 1.28 3.09 4.36 3.09"/></g></svg>