<svg xmlns="http://www.w3.org/2000/svg" xmlns:xlink="http://www.w3.org/1999/xlink" viewBox="0 0 337.79 431.38"><defs><style>.cls-1{isolation:isolate;}.cls-2{fill:url(#linear-gradient);}.cls-24,.cls-25,.cls-26,.cls-27,.cls-3,.cls-4,.cls-42,.cls-43,.cls-44,.cls-45,.cls-5,.cls-6,.cls-60,.cls-61,.cls-62,.cls-63,.cls-83,.cls-84,.cls-85,.cls-86,.cls-88,.cls-89,.cls-90,.cls-91,.cls-93{mix-blend-mode:screen;}.cls-3{fill:url(#linear-gradient-2);}.cls-4{fill:url(#linear-gradient-3);}.cls-5{fill:url(#linear-gradient-4);}.cls-6{fill:url(#linear-gradient-5);}.cls-7{fill:url(#linear-gradient-6);}.cls-8{fill:url(#linear-gradient-7);}.cls-9{fill:url(#linear-gradient-8);}.cls-10{fill:url(#linear-gradient-9);}.cls-11{fill:url(#radial-gradient);}.cls-12{fill:url(#linear-gradient-10);}.cls-13{fill:url(#linear-gradient-11);}.cls-14{fill:url(#linear-gradient-12);}.cls-15{fill:url(#radial-gradient-2);}.cls-16{fill:url(#radial-gradient-3);}.cls-17,.cls-20,.cls-36,.cls-54,.cls-77{mix-blend-mode:multiply;}.cls-17{fill:url(#radial-gradient-4);}.cls-18,.cls-19,.cls-23,.cls-37,.cls-38,.cls-41,.cls-55,.cls-56,.cls-59,.cls-78,.cls-79,.cls-82{mix-blend-mode:color-dodge;}.cls-18{fill:url(#linear-gradient-13);}.cls-19{fill:url(#linear-gradient-14);}.cls-21{fill:url(#linear-gradient-15);}.cls-22{fill:url(#linear-gradient-16);}.cls-23{fill:url(#linear-gradient-17);}.cls-24{fill:url(#linear-gradient-18);}.cls-25{fill:url(#radial-gradient-5);}.cls-26{fill:url(#radial-gradient-6);}.cls-27{fill:url(#linear-gradient-19);}.cls-28{fill:url(#linear-gradient-20);}.cls-29{fill:url(#linear-gradient-21);}.cls-30{fill:url(#radial-gradient-7);}.cls-31{fill:url(#linear-gradient-22);}.cls-32{fill:url(#linear-gradient-23);}.cls-33{fill:url(#linear-gradient-24);}.cls-34{fill:url(#radial-gradient-8);}.cls-35{fill:url(#radial-gradient-9);}.cls-36{fill:url(#radial-gradient-10);}.cls-37{fill:url(#linear-gradient-25);}.cls-38{fill:url(#linear-gradient-26);}.cls-39{fill:url(#linear-gradient-27);}.cls-40{fill:url(#linear-gradient-28);}.cls-41{fill:url(#linear-gradient-29);}.cls-42{fill:url(#linear-gradient-30);}.cls-43{fill:url(#radial-gradient-11);}.cls-44{fill:url(#radial-gradient-12);}.cls-45{fill:url(#linear-gradient-31);}.cls-46{fill:url(#linear-gradient-32);}.cls-47{fill:url(#linear-gradient-33);}.cls-48{fill:url(#radial-gradient-13);}.cls-49{fill:url(#linear-gradient-34);}.cls-50{fill:url(#linear-gradient-35);}.cls-51{fill:url(#linear-gradient-36);}.cls-52{fill:url(#radial-gradient-14);}.cls-53{fill:url(#radial-gradient-15);}.cls-54{fill:url(#radial-gradient-16);}.cls-55{fill:url(#linear-gradient-37);}.cls-56{fill:url(#linear-gradient-38);}.cls-57{fill:url(#linear-gradient-39);}.cls-58{fill:url(#linear-gradient-40);}.cls-59{fill:url(#linear-gradient-41);}.cls-60{fill:url(#linear-gradient-42);}.cls-61{fill:url(#radial-gradient-17);}.cls-62{fill:url(#radial-gradient-18);}.cls-63{fill:url(#linear-gradient-43);}.cls-64{fill:url(#linear-gradient-44);}.cls-65{fill:url(#linear-gradient-45);}.cls-66{fill:url(#linear-gradient-46);}.cls-67{opacity:0.6;}.cls-68{fill:url(#linear-gradient-47);}.cls-69{fill:url(#linear-gradient-48);}.cls-70{fill:url(#linear-gradient-49);}.cls-71{fill:url(#radial-gradient-19);}.cls-72{fill:url(#linear-gradient-50);}.cls-73{fill:url(#linear-gradient-51);}.cls-74{fill:url(#linear-gradient-52);}.cls-75{fill:url(#radial-gradient-20);}.cls-76{fill:url(#radial-gradient-21);}.cls-77{fill:url(#radial-gradient-22);}.cls-78{fill:url(#linear-gradient-53);}.cls-79{fill:url(#linear-gradient-54);}.cls-80{fill:url(#linear-gradient-55);}.cls-81{fill:url(#linear-gradient-56);}.cls-82{fill:url(#linear-gradient-57);}.cls-83{fill:url(#linear-gradient-58);}.cls-84{fill:url(#radial-gradient-23);}.cls-85{fill:url(#radial-gradient-24);}.cls-86{fill:url(#linear-gradient-59);}.cls-87{fill:url(#linear-gradient-60);}.cls-88{fill:url(#linear-gradient-61);}.cls-89{fill:url(#linear-gradient-62);}.cls-90{fill:url(#linear-gradient-63);}.cls-91{fill:url(#linear-gradient-64);}.cls-92{fill:url(#linear-gradient-65);}.cls-93{fill:url(#linear-gradient-66);}</style><linearGradient id="linear-gradient" x1="5.73" y1="226.46" x2="197.45" y2="226.46" gradientUnits="userSpaceOnUse"><stop offset="0" stop-color="#333"/><stop offset="0" stop-color="#323232"/><stop offset="0.07" stop-color="#1c1c1c"/><stop offset="0.14" stop-color="#0c0c0c"/><stop offset="0.23" stop-color="#030303"/><stop offset="0.34"/><stop offset="0.7"/><stop offset="0.78" stop-color="#050505"/><stop offset="0.87" stop-color="#131313"/><stop offset="0.97" stop-color="#2a2a2a"/><stop offset="1" stop-color="#333"/></linearGradient><linearGradient id="linear-gradient-2" x1="11.06" y1="226.46" x2="6.46" y2="226.46" gradientUnits="userSpaceOnUse"><stop offset="0"/><stop offset="0.16" stop-color="#050505"/><stop offset="0.34" stop-color="#131313"/><stop offset="0.53" stop-color="#2a2a2a"/><stop offset="0.74" stop-color="#4b4b4b"/><stop offset="0.95" stop-color="#747474"/><stop offset="1" stop-color="gray"/></linearGradient><linearGradient id="linear-gradient-3" x1="-4488.03" y1="226.46" x2="-4492.62" y2="226.46" gradientTransform="matrix(-1, 0, 0, 1, -4296.03, 0)" xlink:href="#linear-gradient-2"/><linearGradient id="linear-gradient-4" x1="101.59" y1="36.53" x2="101.59" y2="22.77" xlink:href="#linear-gradient-2"/><linearGradient id="linear-gradient-5" x1="-4618.09" y1="-2477.64" x2="-4618.09" y2="-2491.39" gradientTransform="translate(-4516.5 -2061.37) rotate(180)" xlink:href="#linear-gradient-2"/><linearGradient id="linear-gradient-6" x1="-3.3" y1="83.67" x2="39.29" y2="87.78" gradientUnits="userSpaceOnUse"><stop offset="0.01" stop-color="#5c5c5c"/><stop offset="1"/></linearGradient><linearGradient id="linear-gradient-7" x1="69.73" y1="50.98" x2="0.84" y2="132.55" xlink:href="#linear-gradient-6"/><linearGradient id="linear-gradient-8" x1="46.9" y1="53.69" x2="30.21" y2="70.38" xlink:href="#linear-gradient-6"/><linearGradient id="linear-gradient-9" x1="48.8" y1="51.79" x2="29.31" y2="71.28" xlink:href="#linear-gradient-6"/><radialGradient id="radial-gradient" cx="38.47" cy="62.11" r="10.32" gradientUnits="userSpaceOnUse"><stop offset="0" stop-color="#2b2b2b"/><stop offset="0.91"/><stop offset="0.96" stop-color="#292929"/><stop offset="1"/></radialGradient><linearGradient id="linear-gradient-10" x1="26.81" y1="55.48" x2="46.33" y2="66.58" xlink:href="#linear-gradient-6"/><linearGradient id="linear-gradient-11" x1="31.56" y1="68.46" x2="45.73" y2="55.46" gradientUnits="userSpaceOnUse"><stop offset="0" stop-color="#858585"/><stop offset="1"/></linearGradient><linearGradient id="linear-gradient-12" x1="31.7" y1="67.49" x2="45.08" y2="56.87" gradientUnits="userSpaceOnUse"><stop offset="0.01" stop-color="#5c5c5c"/><stop offset="0.25" stop-color="#3d3d3d"/><stop offset="0.57" stop-color="#1c1c1c"/><stop offset="0.83" stop-color="#070707"/><stop offset="1"/></linearGradient><radialGradient id="radial-gradient-2" cx="38.47" cy="62.11" r="7.98" gradientUnits="userSpaceOnUse"><stop offset="0.01" stop-color="#304754"/><stop offset="0.39" stop-color="#344556"/><stop offset="0.78" stop-color="#413d5a"/><stop offset="1" stop-color="#4b375e"/></radialGradient><radialGradient id="radial-gradient-3" cx="38.47" cy="62.11" r="7.38" gradientUnits="userSpaceOnUse"><stop offset="0.01" stop-color="#304754"/><stop offset="0.28" stop-color="#344556"/><stop offset="0.56" stop-color="#413f5a"/><stop offset="0.72" stop-color="#4b3a5e"/><stop offset="1" stop-color="#251832"/></radialGradient><radialGradient id="radial-gradient-4" cx="38.47" cy="62.11" r="6.83" gradientUnits="userSpaceOnUse"><stop offset="0.7" stop-color="#fff"/><stop offset="0.74" stop-color="#fbfbfb"/><stop offset="0.78" stop-color="#efeef0"/><stop offset="0.82" stop-color="#dcdade"/><stop offset="0.86" stop-color="#c0bdc4"/><stop offset="0.9" stop-color="#9d97a3"/><stop offset="0.94" stop-color="#72697a"/><stop offset="0.98" stop-color="#3f344b"/><stop offset="1" stop-color="#251832"/></radialGradient><linearGradient id="linear-gradient-13" x1="34.5" y1="57.99" x2="43" y2="66.81" xlink:href="#linear-gradient-11"/><linearGradient id="linear-gradient-14" x1="43.21" y1="58.09" x2="34.91" y2="65.14" xlink:href="#linear-gradient-11"/><linearGradient id="linear-gradient-15" x1="38.98" y1="62.47" x2="36.55" y2="60.76" xlink:href="#linear-gradient-12"/><linearGradient id="linear-gradient-16" x1="37.46" y1="60.79" x2="39.78" y2="63.82" xlink:href="#linear-gradient-12"/><linearGradient id="linear-gradient-17" x1="40.48" y1="60.41" x2="36.96" y2="63.4" gradientUnits="userSpaceOnUse"><stop offset="0" stop-color="#c4c4c4"/><stop offset="1"/></linearGradient><linearGradient id="linear-gradient-18" x1="687.97" y1="-1196.67" x2="687.97" y2="-1188.82" gradientTransform="matrix(0.83, 0.55, -0.55, 0.83, -1193.2, 670.43)" gradientUnits="userSpaceOnUse"><stop offset="0" stop-color="#837c8d"/><stop offset="1"/></linearGradient><radialGradient id="radial-gradient-5" cx="35.43" cy="59.8" r="4.61" gradientUnits="userSpaceOnUse"><stop offset="0" stop-color="#7e443c"/><stop offset="0" stop-color="#7e443c"/><stop offset="0.34" stop-color="#482722"/><stop offset="0.63" stop-color="#211210"/><stop offset="0.86" stop-color="#090504"/><stop offset="1"/></radialGradient><radialGradient id="radial-gradient-6" cx="40.44" cy="64.12" r="4.61" gradientUnits="userSpaceOnUse"><stop offset="0" stop-color="#22473e"/><stop offset="0.43" stop-color="#10211d"/><stop offset="0.78" stop-color="#040908"/><stop offset="1"/></radialGradient><linearGradient id="linear-gradient-19" x1="687.8" y1="-1189.07" x2="687.8" y2="-1182.55" gradientTransform="matrix(0.83, 0.55, -0.55, 0.83, -1193.2, 670.43)" gradientUnits="userSpaceOnUse"><stop offset="0" stop-color="#4f4f4f"/><stop offset="1"/></linearGradient><linearGradient id="linear-gradient-20" x1="46.9" y1="104.47" x2="30.21" y2="121.16" xlink:href="#linear-gradient-6"/><linearGradient id="linear-gradient-21" x1="48.8" y1="102.57" x2="29.31" y2="122.06" xlink:href="#linear-gradient-6"/><radialGradient id="radial-gradient-7" cx="38.47" cy="112.9" r="10.32" gradientTransform="translate(128.05 34.15) rotate(67.5)" xlink:href="#radial-gradient"/><linearGradient id="linear-gradient-22" x1="26.81" y1="106.26" x2="46.33" y2="117.36" gradientTransform="translate(128.05 34.15) rotate(67.5)" xlink:href="#linear-gradient-6"/><linearGradient id="linear-gradient-23" x1="31.56" y1="119.24" x2="45.73" y2="106.24" xlink:href="#linear-gradient-11"/><linearGradient id="linear-gradient-24" x1="31.7" y1="118.28" x2="45.08" y2="107.65" xlink:href="#linear-gradient-12"/><radialGradient id="radial-gradient-8" cx="38.47" cy="112.9" r="7.98" xlink:href="#radial-gradient-2"/><radialGradient id="radial-gradient-9" cx="38.47" cy="112.9" r="7.38" xlink:href="#radial-gradient-3"/><radialGradient id="radial-gradient-10" cx="38.47" cy="112.9" r="6.83" xlink:href="#radial-gradient-4"/><linearGradient id="linear-gradient-25" x1="34.5" y1="108.77" x2="43" y2="117.59" xlink:href="#linear-gradient-11"/><linearGradient id="linear-gradient-26" x1="43.21" y1="108.87" x2="34.91" y2="115.92" xlink:href="#linear-gradient-11"/><linearGradient id="linear-gradient-27" x1="38.98" y1="113.25" x2="36.55" y2="111.54" xlink:href="#linear-gradient-12"/><linearGradient id="linear-gradient-28" x1="37.46" y1="111.57" x2="39.78" y2="114.6" xlink:href="#linear-gradient-12"/><linearGradient id="linear-gradient-29" x1="40.48" y1="111.19" x2="36.96" y2="114.18" xlink:href="#linear-gradient-17"/><linearGradient id="linear-gradient-30" x1="716.12" y1="-1154.41" x2="716.12" y2="-1146.55" xlink:href="#linear-gradient-18"/><radialGradient id="radial-gradient-11" cx="35.43" cy="110.58" r="4.61" xlink:href="#radial-gradient-5"/><radialGradient id="radial-gradient-12" cx="40.44" cy="114.9" r="4.61" xlink:href="#radial-gradient-6"/><linearGradient id="linear-gradient-31" x1="715.95" y1="-1146.8" x2="715.95" y2="-1140.28" xlink:href="#linear-gradient-19"/><linearGradient id="linear-gradient-32" x1="46.9" y1="79.08" x2="30.21" y2="95.77" xlink:href="#linear-gradient-6"/><linearGradient id="linear-gradient-33" x1="48.8" y1="77.18" x2="29.31" y2="96.67" xlink:href="#linear-gradient-6"/><radialGradient id="radial-gradient-13" cx="38.47" cy="87.5" r="10.32" xlink:href="#radial-gradient"/><linearGradient id="linear-gradient-34" x1="26.81" y1="80.87" x2="46.33" y2="91.97" xlink:href="#linear-gradient-6"/><linearGradient id="linear-gradient-35" x1="31.56" y1="93.85" x2="45.73" y2="80.85" xlink:href="#linear-gradient-11"/><linearGradient id="linear-gradient-36" x1="31.7" y1="92.89" x2="45.08" y2="82.26" xlink:href="#linear-gradient-12"/><radialGradient id="radial-gradient-14" cx="38.47" cy="87.5" r="7.98" xlink:href="#radial-gradient-2"/><radialGradient id="radial-gradient-15" cx="38.47" cy="87.5" r="7.38" xlink:href="#radial-gradient-3"/><radialGradient id="radial-gradient-16" cx="38.47" cy="87.5" r="6.83" xlink:href="#radial-gradient-4"/><linearGradient id="linear-gradient-37" x1="34.5" y1="83.38" x2="43" y2="92.2" xlink:href="#linear-gradient-11"/><linearGradient id="linear-gradient-38" x1="43.21" y1="83.48" x2="34.91" y2="90.53" xlink:href="#linear-gradient-11"/><linearGradient id="linear-gradient-39" x1="38.98" y1="87.86" x2="36.55" y2="86.15" xlink:href="#linear-gradient-12"/><linearGradient id="linear-gradient-40" x1="37.46" y1="86.18" x2="39.78" y2="89.21" xlink:href="#linear-gradient-12"/><linearGradient id="linear-gradient-41" x1="40.48" y1="85.8" x2="36.96" y2="88.79" xlink:href="#linear-gradient-17"/><linearGradient id="linear-gradient-42" x1="702.04" y1="-1175.54" x2="702.04" y2="-1167.68" xlink:href="#linear-gradient-18"/><radialGradient id="radial-gradient-17" cx="35.43" cy="85.19" r="4.61" xlink:href="#radial-gradient-5"/><radialGradient id="radial-gradient-18" cx="40.44" cy="89.51" r="4.61" xlink:href="#radial-gradient-6"/><linearGradient id="linear-gradient-43" x1="701.87" y1="-1167.93" x2="701.87" y2="-1161.42" xlink:href="#linear-gradient-19"/><linearGradient id="linear-gradient-44" x1="328.76" y1="158.27" x2="328.76" y2="89.86" gradientUnits="userSpaceOnUse"><stop offset="0" stop-color="gray"/><stop offset="0.01" stop-color="#727272"/><stop offset="0.06" stop-color="#4f4f4f"/><stop offset="0.1" stop-color="#323232"/><stop offset="0.15" stop-color="#1c1c1c"/><stop offset="0.2" stop-color="#0c0c0c"/><stop offset="0.26" stop-color="#030303"/><stop offset="0.34"/><stop offset="0.7"/><stop offset="0.75" stop-color="#050505"/><stop offset="0.8" stop-color="#131313"/><stop offset="0.86" stop-color="#2a2a2a"/><stop offset="0.92" stop-color="#4b4b4b"/><stop offset="0.98" stop-color="#747474"/><stop offset="1" stop-color="gray"/></linearGradient><linearGradient id="linear-gradient-45" x1="328.76" y1="194.2" x2="328.76" y2="166.15" xlink:href="#linear-gradient-44"/><linearGradient id="linear-gradient-46" x1="267" y1="15.48" x2="298.44" y2="15.48" xlink:href="#linear-gradient-44"/><linearGradient id="linear-gradient-47" x1="265.17" y1="4.91" x2="300.27" y2="4.91" xlink:href="#linear-gradient-44"/><linearGradient id="linear-gradient-48" x1="288.24" y1="10.24" x2="277.29" y2="21.2" xlink:href="#linear-gradient-6"/><linearGradient id="linear-gradient-49" x1="289.49" y1="8.99" x2="276.7" y2="21.79" xlink:href="#linear-gradient-6"/><radialGradient id="radial-gradient-19" cx="282.72" cy="15.77" r="6.77" xlink:href="#radial-gradient"/><linearGradient id="linear-gradient-50" x1="275.06" y1="11.42" x2="287.87" y2="18.7" xlink:href="#linear-gradient-6"/><linearGradient id="linear-gradient-51" x1="278.18" y1="19.94" x2="287.48" y2="11.4" xlink:href="#linear-gradient-11"/><linearGradient id="linear-gradient-52" x1="278.27" y1="19.3" x2="287.05" y2="12.33" xlink:href="#linear-gradient-12"/><radialGradient id="radial-gradient-20" cx="282.72" cy="15.77" r="5.24" xlink:href="#radial-gradient-2"/><radialGradient id="radial-gradient-21" cx="282.72" cy="15.77" r="4.84" xlink:href="#radial-gradient-3"/><radialGradient id="radial-gradient-22" cx="282.72" cy="15.77" r="4.48" xlink:href="#radial-gradient-4"/><linearGradient id="linear-gradient-53" x1="280.11" y1="13.07" x2="285.69" y2="18.85" gradientTransform="translate(27.56 -106.99) rotate(22.5)" xlink:href="#linear-gradient-11"/><linearGradient id="linear-gradient-54" x1="285.82" y1="13.13" x2="280.38" y2="17.76" xlink:href="#linear-gradient-11"/><linearGradient id="linear-gradient-55" x1="283.05" y1="16.01" x2="281.46" y2="14.88" xlink:href="#linear-gradient-12"/><linearGradient id="linear-gradient-56" x1="282.05" y1="14.9" x2="283.57" y2="16.89" xlink:href="#linear-gradient-12"/><linearGradient id="linear-gradient-57" x1="284.03" y1="14.65" x2="281.73" y2="16.61" xlink:href="#linear-gradient-17"/><linearGradient id="linear-gradient-58" x1="865.56" y1="-1368.01" x2="865.56" y2="-1362.86" xlink:href="#linear-gradient-18"/><radialGradient id="radial-gradient-23" cx="280.72" cy="14.25" r="3.02" xlink:href="#radial-gradient-5"/><radialGradient id="radial-gradient-24" cx="284.01" cy="17.09" r="3.02" xlink:href="#radial-gradient-6"/><linearGradient id="linear-gradient-59" x1="865.45" y1="-1363.02" x2="865.45" y2="-1358.74" xlink:href="#linear-gradient-19"/><linearGradient id="linear-gradient-60" x1="138.49" y1="226.46" x2="330.22" y2="226.46" xlink:href="#linear-gradient"/><linearGradient id="linear-gradient-61" x1="143.82" y1="226.46" x2="139.23" y2="226.46" xlink:href="#linear-gradient-2"/><linearGradient id="linear-gradient-62" x1="-4620.79" y1="226.46" x2="-4625.38" y2="226.46" gradientTransform="matrix(-1, 0, 0, 1, -4296.03, 0)" xlink:href="#linear-gradient-2"/><linearGradient id="linear-gradient-63" x1="234.36" y1="36.53" x2="234.36" y2="22.77" xlink:href="#linear-gradient-2"/><linearGradient id="linear-gradient-64" x1="-4750.85" y1="-2477.64" x2="-4750.85" y2="-2491.39" gradientTransform="translate(-4516.5 -2061.37) rotate(180)" xlink:href="#linear-gradient-2"/><linearGradient id="linear-gradient-65" x1="71.6" y1="50.37" x2="232.19" y2="224.11" xlink:href="#linear-gradient-6"/><linearGradient id="linear-gradient-66" x1="36.46" y1="109.64" x2="363.88" y2="257.48" gradientUnits="userSpaceOnUse"><stop offset="0" stop-color="#4a4a4a"/><stop offset="0.1" stop-color="#3b3b3b"/><stop offset="0.31" stop-color="#212121"/><stop offset="0.53" stop-color="#0f0f0f"/><stop offset="0.75" stop-color="#040404"/><stop offset="1"/></linearGradient></defs><title>Transparent by alexthecurator</title><g class="cls-1"><g id="Layer_1" data-name="Layer 1"><g id="Phones"><rect class="cls-2" x="5.73" y="24.15" width="191.72" height="404.6" rx="26.78"/><path class="cls-3" d="M8.73,402.28V50.63a26.67,26.67,0,0,1,6.4-17.36,26.69,26.69,0,0,0-8.5,19.56V400.08a26.69,26.69,0,0,0,8.5,19.56A26.67,26.67,0,0,1,8.73,402.28Z"/><path class="cls-4" d="M194.33,402.28V50.63a26.72,26.72,0,0,0-6.4-17.36,26.73,26.73,0,0,1,8.5,19.56V400.08a26.73,26.73,0,0,1-8.5,19.56A26.72,26.72,0,0,0,194.33,402.28Z"/><path class="cls-5" d="M168.43,26.18H34.76A26.78,26.78,0,0,0,8,53v3.82A26.78,26.78,0,0,1,34.76,30H168.43A26.77,26.77,0,0,1,195.2,56.78V53A26.77,26.77,0,0,0,168.43,26.18Z"/><path class="cls-6" d="M34.76,426.62H168.43a26.77,26.77,0,0,0,26.77-26.78V396a26.77,26.77,0,0,1-26.77,26.78H34.76A26.78,26.78,0,0,1,8,396v3.83A26.78,26.78,0,0,0,34.76,426.62Z"/><path class="cls-7" d="M38.7,131.27h0a17.22,17.22,0,0,1-17.22-17.22V61.4A17.22,17.22,0,0,1,38.7,44.18h0A17.22,17.22,0,0,1,55.91,61.4v52.65A17.22,17.22,0,0,1,38.7,131.27Z"/><path class="cls-8" d="M38.7,131.66a17.63,17.63,0,0,1-17.61-17.61V61.4a17.61,17.61,0,1,1,35.22,0v52.65A17.63,17.63,0,0,1,38.7,131.66Zm0-87.08A16.83,16.83,0,0,0,21.88,61.4v52.65a16.82,16.82,0,1,0,33.63,0V61.4A16.83,16.83,0,0,0,38.7,44.58Z"/><path class="cls-9" d="M38.47,50.37A11.75,11.75,0,1,0,50.22,62.11,11.74,11.74,0,0,0,38.47,50.37Z"/><path class="cls-10" d="M38.47,50.69A11.43,11.43,0,1,0,49.9,62.11,11.42,11.42,0,0,0,38.47,50.69Z"/><circle class="cls-11" cx="38.47" cy="62.11" r="10.32"/><path class="cls-12" d="M47.7,62.11a9.23,9.23,0,1,1-9.23-9.22A9.23,9.23,0,0,1,47.7,62.11Z"/><path class="cls-13" d="M38.47,53.17a8.95,8.95,0,1,0,9,8.94,8.94,8.94,0,0,0-9-8.94Z"/><path class="cls-14" d="M38.47,53.35a8.76,8.76,0,1,0,8.76,8.76,8.77,8.77,0,0,0-8.76-8.76Z"/><path class="cls-15" d="M46.46,62.11a8,8,0,1,1-8-8A8,8,0,0,1,46.46,62.11Z"/><path class="cls-16" d="M45.85,62.11a7.38,7.38,0,1,1-7.38-7.38A7.37,7.37,0,0,1,45.85,62.11Z"/><path class="cls-17" d="M45.3,62.11a6.83,6.83,0,1,1-6.83-6.82A6.83,6.83,0,0,1,45.3,62.11Z"/><circle class="cls-18" cx="38.47" cy="62.11" r="4.68"/><path class="cls-19" d="M42.23,62.11a3.76,3.76,0,1,1-3.76-3.75A3.76,3.76,0,0,1,42.23,62.11Z"/><g class="cls-20"><path class="cls-21" d="M41.26,62.11a2.79,2.79,0,1,1-2.79-2.78A2.79,2.79,0,0,1,41.26,62.11Z"/><circle class="cls-22" cx="38.47" cy="62.11" r="1.97"/></g><path class="cls-23" d="M40.07,62.11a1.6,1.6,0,1,1-1.6-1.59A1.6,1.6,0,0,1,40.07,62.11Z"/><path class="cls-24" d="M45.31,61.9c-1.16,1.75-4.18,1.79-6.73.09s-3.68-4.49-2.51-6.25,4.18-1.79,6.73-.09S46.48,60.15,45.31,61.9Z"/><path class="cls-25" d="M40,59.8a4.61,4.61,0,1,1-4.61-4.61A4.6,4.6,0,0,1,40,59.8Z"/><path class="cls-26" d="M45.05,64.12a4.61,4.61,0,1,1-4.61-4.61A4.61,4.61,0,0,1,45.05,64.12Z"/><path class="cls-27" d="M32.69,63.84c.82-1.24,2.87-1.32,4.58-.18s2.42,3,1.59,4.29-2.87,1.31-4.57.18S31.87,65.07,32.69,63.84Z"/><path class="cls-28" d="M38.47,101.15A11.75,11.75,0,1,0,50.22,112.9a11.75,11.75,0,0,0-11.75-11.75Z"/><path class="cls-29" d="M38.47,101.47A11.43,11.43,0,1,0,49.9,112.9a11.43,11.43,0,0,0-11.43-11.43Z"/><circle class="cls-30" cx="38.47" cy="112.9" r="10.32" transform="translate(-80.55 105.24) rotate(-67.5)"/><circle class="cls-31" cx="38.47" cy="112.9" r="9.23" transform="translate(-80.55 105.24) rotate(-67.5)"/><path class="cls-32" d="M38.47,104a8.95,8.95,0,1,0,9,9,8.95,8.95,0,0,0-9-9Z"/><path class="cls-33" d="M38.47,104.14a8.76,8.76,0,1,0,8.76,8.76,8.76,8.76,0,0,0-8.76-8.76Z"/><path class="cls-34" d="M46.46,112.9a8,8,0,1,1-8-8A8,8,0,0,1,46.46,112.9Z"/><path class="cls-35" d="M45.85,112.9a7.38,7.38,0,1,1-7.38-7.39A7.38,7.38,0,0,1,45.85,112.9Z"/><path class="cls-36" d="M45.3,112.9a6.83,6.83,0,1,1-6.83-6.83A6.82,6.82,0,0,1,45.3,112.9Z"/><circle class="cls-37" cx="38.47" cy="112.9" r="4.68"/><path class="cls-38" d="M42.23,112.9a3.76,3.76,0,1,1-3.76-3.76A3.75,3.75,0,0,1,42.23,112.9Z"/><g class="cls-20"><path class="cls-39" d="M41.26,112.9a2.79,2.79,0,1,1-2.79-2.79A2.79,2.79,0,0,1,41.26,112.9Z"/><path class="cls-40" d="M40.44,112.9a2,2,0,1,1-2-2A2,2,0,0,1,40.44,112.9Z"/></g><path class="cls-41" d="M40.07,112.9a1.6,1.6,0,1,1-1.6-1.6A1.6,1.6,0,0,1,40.07,112.9Z"/><path class="cls-42" d="M45.31,112.68c-1.16,1.75-4.18,1.8-6.73.1s-3.68-4.5-2.51-6.25,4.18-1.8,6.73-.1S46.48,110.93,45.31,112.68Z"/><path class="cls-43" d="M40,110.58A4.61,4.61,0,1,1,35.43,106,4.6,4.6,0,0,1,40,110.58Z"/><path class="cls-44" d="M45.05,114.9a4.61,4.61,0,1,1-4.61-4.61A4.6,4.6,0,0,1,45.05,114.9Z"/><path class="cls-45" d="M32.69,114.62c.82-1.24,2.87-1.32,4.58-.18s2.42,3,1.59,4.29-2.87,1.32-4.57.18S31.87,115.85,32.69,114.62Z"/><path class="cls-46" d="M38.47,75.76A11.75,11.75,0,1,0,50.22,87.5,11.74,11.74,0,0,0,38.47,75.76Z"/><path class="cls-47" d="M38.47,76.08A11.43,11.43,0,1,0,49.9,87.5,11.43,11.43,0,0,0,38.47,76.08Z"/><path class="cls-48" d="M48.79,87.5A10.32,10.32,0,1,1,38.47,77.18,10.33,10.33,0,0,1,48.79,87.5Z"/><path class="cls-49" d="M47.7,87.5a9.23,9.23,0,1,1-9.23-9.22A9.23,9.23,0,0,1,47.7,87.5Z"/><path class="cls-50" d="M38.47,78.56a8.95,8.95,0,1,0,9,8.94,8.94,8.94,0,0,0-9-8.94Z"/><path class="cls-51" d="M38.47,78.75a8.76,8.76,0,1,0,8.76,8.75,8.76,8.76,0,0,0-8.76-8.75Z"/><path class="cls-52" d="M46.46,87.5a8,8,0,1,1-8-8A8,8,0,0,1,46.46,87.5Z"/><path class="cls-53" d="M45.85,87.5a7.38,7.38,0,1,1-7.38-7.38A7.37,7.37,0,0,1,45.85,87.5Z"/><path class="cls-54" d="M45.3,87.5a6.83,6.83,0,1,1-6.83-6.82A6.83,6.83,0,0,1,45.3,87.5Z"/><circle class="cls-55" cx="38.47" cy="87.5" r="4.68"/><path class="cls-56" d="M42.23,87.5a3.76,3.76,0,1,1-3.76-3.75A3.76,3.76,0,0,1,42.23,87.5Z"/><g class="cls-20"><path class="cls-57" d="M41.26,87.5a2.79,2.79,0,1,1-2.79-2.78A2.79,2.79,0,0,1,41.26,87.5Z"/><path class="cls-58" d="M40.44,87.5a2,2,0,1,1-2-2A2,2,0,0,1,40.44,87.5Z"/></g><path class="cls-59" d="M40.07,87.5a1.6,1.6,0,1,1-1.6-1.59A1.6,1.6,0,0,1,40.07,87.5Z"/><path class="cls-60" d="M45.31,87.29c-1.16,1.75-4.18,1.79-6.73.09s-3.68-4.49-2.51-6.25,4.18-1.79,6.73-.09S46.48,85.54,45.31,87.29Z"/><path class="cls-61" d="M40,85.19a4.61,4.61,0,1,1-4.61-4.61A4.6,4.6,0,0,1,40,85.19Z"/><path class="cls-62" d="M45.05,89.51a4.61,4.61,0,1,1-4.61-4.61A4.6,4.6,0,0,1,45.05,89.51Z"/><path class="cls-63" d="M32.69,89.23c.82-1.24,2.87-1.32,4.58-.18s2.42,3,1.59,4.29-2.87,1.31-4.57.18S31.87,90.46,32.69,89.23Z"/><rect class="cls-64" x="325.46" y="89.86" width="6.6" height="68.41" rx="1.73"/><rect class="cls-65" x="325.46" y="166.15" width="6.6" height="28.05" rx="1.73"/><rect class="cls-66" x="267" y="6.15" width="31.44" height="18.66"/><g class="cls-67"><rect x="267" y="6.15" width="31.44" height="2.07"/></g><rect class="cls-68" x="265.17" y="2.63" width="35.1" height="4.56" rx="0.22"/><path class="cls-69" d="M282.72,8.06a7.71,7.71,0,1,0,7.7,7.71,7.71,7.71,0,0,0-7.7-7.71Z"/><path class="cls-70" d="M282.72,8.27a7.5,7.5,0,1,0,7.49,7.5,7.5,7.5,0,0,0-7.49-7.5Z"/><circle class="cls-71" cx="282.72" cy="15.77" r="6.77"/><path class="cls-72" d="M288.77,15.77a6.06,6.06,0,1,1-6-6A6.05,6.05,0,0,1,288.77,15.77Z"/><path class="cls-73" d="M282.72,9.9a5.87,5.87,0,1,0,5.87,5.87,5.87,5.87,0,0,0-5.87-5.87Z"/><path class="cls-74" d="M282.72,10a5.75,5.75,0,1,0,5.75,5.75A5.75,5.75,0,0,0,282.72,10Z"/><path class="cls-75" d="M288,15.77a5.24,5.24,0,1,1-5.24-5.24A5.25,5.25,0,0,1,288,15.77Z"/><path class="cls-76" d="M287.56,15.77a4.85,4.85,0,1,1-4.84-4.84A4.85,4.85,0,0,1,287.56,15.77Z"/><path class="cls-77" d="M287.2,15.77a4.48,4.48,0,1,1-4.48-4.48A4.48,4.48,0,0,1,287.2,15.77Z"/><circle class="cls-78" cx="282.72" cy="15.77" r="3.07" transform="translate(15.48 109.39) rotate(-22.5)"/><path class="cls-79" d="M285.18,15.77a2.47,2.47,0,1,1-2.46-2.46A2.47,2.47,0,0,1,285.18,15.77Z"/><g class="cls-20"><circle class="cls-80" cx="282.72" cy="15.77" r="1.83"/><path class="cls-81" d="M284,15.77a1.3,1.3,0,1,1-1.29-1.29A1.29,1.29,0,0,1,284,15.77Z"/></g><path class="cls-82" d="M283.76,15.77a1,1,0,1,1-1-1A1,1,0,0,1,283.76,15.77Z"/><path class="cls-83" d="M287.21,15.63c-.77,1.15-2.75,1.18-4.42.06s-2.42-2.95-1.65-4.1,2.74-1.17,4.42-.06S288,14.48,287.21,15.63Z"/><path class="cls-84" d="M283.75,14.25a3,3,0,1,1-3-3A3,3,0,0,1,283.75,14.25Z"/><path class="cls-85" d="M287,17.09a3,3,0,1,1-3-3A3,3,0,0,1,287,17.09Z"/><path class="cls-86" d="M278.92,16.9c.54-.81,1.89-.86,3-.12s1.59,2,1.05,2.82-1.88.86-3,.12S278.38,17.71,278.92,16.9Z"/><rect class="cls-87" x="138.49" y="24.15" width="191.72" height="404.6" rx="26.78"/><path class="cls-88" d="M141.5,402.28V50.63a26.71,26.71,0,0,1,6.39-17.36,26.73,26.73,0,0,0-8.5,19.56V400.08a26.73,26.73,0,0,0,8.5,19.56A26.71,26.71,0,0,1,141.5,402.28Z"/><path class="cls-89" d="M327.09,402.28V50.63a26.67,26.67,0,0,0-6.4-17.36,26.69,26.69,0,0,1,8.5,19.56V400.08a26.69,26.69,0,0,1-8.5,19.56A26.67,26.67,0,0,0,327.09,402.28Z"/><path class="cls-90" d="M301.19,26.18H167.52A26.77,26.77,0,0,0,140.75,53v3.82A26.77,26.77,0,0,1,167.52,30H301.19A26.78,26.78,0,0,1,328,56.78V53A26.78,26.78,0,0,0,301.19,26.18Z"/><path class="cls-91" d="M167.52,426.62H301.19A26.78,26.78,0,0,0,328,399.84V396a26.78,26.78,0,0,1-26.78,26.78H167.52A26.77,26.77,0,0,1,140.75,396v3.83A26.77,26.77,0,0,0,167.52,426.62Z"/><rect class="cls-92" x="143.45" y="32.93" width="181.82" height="387.05" rx="10.92"/><rect x="216.8" y="24.23" width="35.1" height="3.6"/><path class="cls-93" d="M277.34,32.93l-133.9,310.5V53.18A20.25,20.25,0,0,1,163.7,32.93Z"/></g></g></g></svg>